# xmcd
#
# Track frame offsets:
#	150
#	18666
#	32648
#	62254
#	75933
#	84166
#	114356
#	128661
#	151508
#	169725
#	185784
#	206602
#
# Disc length: 2960 seconds
#
# Revision: 1
# Processed by: cddbd v1.5.2PL0 Copyright (c) Steve Scherf et al.
# Submitted via: audiograbber 1.83.01
#
DISCID=820b8e0c
DTITLE=Michael Gray - Shaking Hands
DYEAR=1998
DGENRE=Cajun
TTITLE0=SEXY LADY
TTITLE1=When It Comes To My Heart
TTITLE2=Appletown
TTITLE3=On The Floor
TTITLE4=A Song For You
TTITLE5=Coins And Lace
TTITLE6=Want You
TTITLE7=Facts
TTITLE8=Songbirds Cry
TTITLE9=Earline
TTITLE10=Nobody But Myself
TTITLE11=Jericho
EXTD=
EXTT0=
EXTT1=
EXTT2=
EXTT3=
EXTT4=
EXTT5=
EXTT6=
EXTT7=
EXTT8=
EXTT9=
EXTT10=
EXTT11=
PLAYORDER=
